<?xml version="1.0" encoding="utf-8"?>
<!-- Generator: Adobe Illustrator 18.1.1, SVG Export Plug-In . SVG Version: 6.00 Build 0)  -->
<!DOCTYPE svg PUBLIC "-//W3C//DTD SVG 1.1//EN" "http://www.w3.org/Graphics/SVG/1.1/DTD/svg11.dtd">
<svg version="1.1" id="Layer_1" xmlns="http://www.w3.org/2000/svg" xmlns:xlink="http://www.w3.org/1999/xlink" x="0px" y="0px"
	 viewBox="0 0 128 128" enable-background="new 0 0 128 128" xml:space="preserve">
<g enable-background="new    ">
	<g>
		<defs>
			<rect id="SVGID_1_" x="19" y="16.4" width="94" height="90.9"/>
		</defs>
		<clipPath id="SVGID_2_">
			<use xlink:href="#SVGID_1_"  overflow="visible"/>
		</clipPath>
		<g clip-path="url(#SVGID_2_)">
			<defs>
				<rect id="SVGID_3_" x="-79.6" y="-1373.6" width="2105" height="8053.2"/>
			</defs>
			<clipPath id="SVGID_4_">
				<use xlink:href="#SVGID_3_"  overflow="visible"/>
			</clipPath>
			<g clip-path="url(#SVGID_4_)">
				<defs>
					<path id="SVGID_5_" d="M104.2,64.2c0.6,23.2-17.7,42.5-40.8,43.1C40.3,107.9,21,89.6,20.3,66.4C19.7,43.2,38,23.9,61.2,23.3
						C84.3,22.7,103.6,41,104.2,64.2"/>
				</defs>
				<clipPath id="SVGID_6_">
					<use xlink:href="#SVGID_5_"  overflow="visible"/>
				</clipPath>
				<g clip-path="url(#SVGID_6_)">
					<defs>
						<rect id="SVGID_7_" x="19" y="16.4" width="94" height="90.9"/>
					</defs>
					<clipPath id="SVGID_8_">
						<use xlink:href="#SVGID_7_"  overflow="visible"/>
					</clipPath>
					<rect x="12.6" y="15.6" clip-path="url(#SVGID_8_)" fill="#F7D646" width="99.3" height="99.4"/>
				</g>
			</g>
		</g>
		<g clip-path="url(#SVGID_2_)">
			<defs>
				<rect id="SVGID_9_" x="-79.6" y="-1373.6" width="2105" height="8053.2"/>
			</defs>
			<clipPath id="SVGID_10_">
				<use xlink:href="#SVGID_9_"  overflow="visible"/>
			</clipPath>
			<g clip-path="url(#SVGID_10_)">
				<defs>
					<polyline id="SVGID_11_" points="83.1,8.4 77.5,8.5 78.1,49.1 54.5,49.5 53.8,9.9 48.1,10 48.8,49.6 17.5,50.1 17.6,55.8 
						48.9,55.3 49.2,73.5 -7,74.4 -6.9,80.1 49.3,79.2 50,117.1 55.7,117 54.6,55.2 78.2,54.8 79.4,121.3 85.1,121.2 83.9,54.7 
						108.1,54.2 108,48.5 83.8,49 83.1,8.4 					"/>
				</defs>
				<clipPath id="SVGID_12_">
					<use xlink:href="#SVGID_11_"  overflow="visible"/>
				</clipPath>
				<g clip-path="url(#SVGID_12_)">
					<defs>
						<rect id="SVGID_13_" x="19" y="16.4" width="94" height="90.9"/>
					</defs>
					<clipPath id="SVGID_14_">
						<use xlink:href="#SVGID_13_"  overflow="visible"/>
					</clipPath>
					<g clip-path="url(#SVGID_14_)" enable-background="new    ">
						<g>
							<defs>
								<rect id="SVGID_15_" x="19" y="22.5" width="86.3" height="84.8"/>
							</defs>
							<clipPath id="SVGID_16_">
								<use xlink:href="#SVGID_15_"  overflow="visible"/>
							</clipPath>
							<g clip-path="url(#SVGID_16_)">
								<defs>
									<path id="SVGID_17_" d="M104.3,64c0.6,23.2-17.7,42.5-40.8,43.1C40.3,107.8,21,89.5,20.4,66.3C19.7,43.1,38,23.8,61.2,23.2
										C84.4,22.6,103.6,40.9,104.3,64"/>
								</defs>
								<clipPath id="SVGID_18_">
									<use xlink:href="#SVGID_17_"  overflow="visible"/>
								</clipPath>
								<g clip-path="url(#SVGID_18_)">
									<defs>
										<rect id="SVGID_19_" x="19" y="16.4" width="89.4" height="90.9"/>
									</defs>
									<clipPath id="SVGID_20_">
										<use xlink:href="#SVGID_19_"  overflow="visible"/>
									</clipPath>
									<rect x="12.6" y="15.5" clip-path="url(#SVGID_20_)" fill="#EFEFEF" width="99.3" height="99.4"/>
								</g>
							</g>
						</g>
					</g>
				</g>
			</g>
		</g>
		<g clip-path="url(#SVGID_2_)">
			<defs>
				<rect id="SVGID_21_" x="-79.6" y="-1373.6" width="2105" height="8053.2"/>
			</defs>
			<clipPath id="SVGID_22_">
				<use xlink:href="#SVGID_21_"  overflow="visible"/>
			</clipPath>
			<g clip-path="url(#SVGID_22_)">
				<defs>
					<polyline id="SVGID_23_" points="15.2,50.2 48.8,49.6 48.3,19.9 15.2,50.2 					"/>
				</defs>
				<clipPath id="SVGID_24_">
					<use xlink:href="#SVGID_23_"  overflow="visible"/>
				</clipPath>
				<g clip-path="url(#SVGID_24_)">
					<defs>
						<rect id="SVGID_25_" x="19" y="16.4" width="94" height="90.9"/>
					</defs>
					<clipPath id="SVGID_26_">
						<use xlink:href="#SVGID_25_"  overflow="visible"/>
					</clipPath>
					<g clip-path="url(#SVGID_26_)" enable-background="new    ">
						<g>
							<defs>
								<rect id="SVGID_27_" x="19" y="21" width="30.8" height="29.3"/>
							</defs>
							<clipPath id="SVGID_28_">
								<use xlink:href="#SVGID_27_"  overflow="visible"/>
							</clipPath>
							<g clip-path="url(#SVGID_28_)">
								<defs>
									<path id="SVGID_29_" d="M104.6,63.8c0.6,23.2-17.7,42.5-40.8,43.1c-23.2,0.6-42.4-17.7-43.1-40.8
										C20.1,42.9,38.3,23.6,61.5,23C84.7,22.3,104,40.6,104.6,63.8"/>
								</defs>
								<clipPath id="SVGID_30_">
									<use xlink:href="#SVGID_29_"  overflow="visible"/>
								</clipPath>
								<g clip-path="url(#SVGID_30_)">
									<defs>
										<rect id="SVGID_31_" x="19" y="19.5" width="30.8" height="30.8"/>
									</defs>
									<clipPath id="SVGID_32_">
										<use xlink:href="#SVGID_31_"  overflow="visible"/>
									</clipPath>
									<rect x="13" y="15.2" clip-path="url(#SVGID_32_)" fill="#3F8CF4" width="99.3" height="99.4"/>
								</g>
							</g>
						</g>
					</g>
				</g>
			</g>
		</g>
		<g clip-path="url(#SVGID_2_)">
			<defs>
				<rect id="SVGID_33_" x="-79.6" y="-1373.6" width="2105" height="8053.2"/>
			</defs>
			<clipPath id="SVGID_34_">
				<use xlink:href="#SVGID_33_"  overflow="visible"/>
			</clipPath>
			<g clip-path="url(#SVGID_34_)">
				<defs>
					<path id="SVGID_35_" d="M83.9,54.6l0.8,47.8l15.5-11c0,0,12.2-26,12.1-26.3c-0.1-0.3-9.6-10.8-9.6-10.8L83.9,54.6"/>
				</defs>
				<clipPath id="SVGID_36_">
					<use xlink:href="#SVGID_35_"  overflow="visible"/>
				</clipPath>
				<g clip-path="url(#SVGID_36_)">
					<defs>
						<rect id="SVGID_37_" x="19" y="16.4" width="94" height="90.9"/>
					</defs>
					<clipPath id="SVGID_38_">
						<use xlink:href="#SVGID_37_"  overflow="visible"/>
					</clipPath>
					<g clip-path="url(#SVGID_38_)" enable-background="new    ">
						<g>
							<defs>
								<rect id="SVGID_39_" x="83.7" y="53.4" width="21.6" height="49.3"/>
							</defs>
							<clipPath id="SVGID_40_">
								<use xlink:href="#SVGID_39_"  overflow="visible"/>
							</clipPath>
							<g clip-path="url(#SVGID_40_)">
								<defs>
									<path id="SVGID_41_" d="M104.2,64.1c0.6,23.2-17.7,42.5-40.8,43.1c-23.2,0.6-42.4-17.7-43.1-40.8
										C19.7,43.2,38,23.9,61.1,23.3C84.3,22.7,103.6,41,104.2,64.1"/>
								</defs>
								<clipPath id="SVGID_42_">
									<use xlink:href="#SVGID_41_"  overflow="visible"/>
								</clipPath>
								<g clip-path="url(#SVGID_42_)">
									<defs>
										<rect id="SVGID_43_" x="83.7" y="53.4" width="29.3" height="49.3"/>
									</defs>
									<clipPath id="SVGID_44_">
										<use xlink:href="#SVGID_43_"  overflow="visible"/>
									</clipPath>
									<rect x="12.6" y="15.6" clip-path="url(#SVGID_44_)" fill="#3F8CF4" width="99.3" height="99.4"/>
								</g>
							</g>
						</g>
					</g>
				</g>
			</g>
		</g>
		<g clip-path="url(#SVGID_2_)">
			<defs>
				<rect id="SVGID_45_" x="-79.6" y="-1373.6" width="2105" height="8053.2"/>
			</defs>
			<clipPath id="SVGID_46_">
				<use xlink:href="#SVGID_45_"  overflow="visible"/>
			</clipPath>
			<g clip-path="url(#SVGID_46_)">
				<defs>
					<polyline id="SVGID_47_" points="22.5,79.6 49.3,79.2 49.9,110.9 31.6,106.6 13,97.9 13.4,89.1 17.1,82.4 22.5,79.6 					"/>
				</defs>
				<clipPath id="SVGID_48_">
					<use xlink:href="#SVGID_47_"  overflow="visible"/>
				</clipPath>
				<g clip-path="url(#SVGID_48_)">
					<defs>
						<rect id="SVGID_49_" x="19" y="16.4" width="94" height="90.9"/>
					</defs>
					<clipPath id="SVGID_50_">
						<use xlink:href="#SVGID_49_"  overflow="visible"/>
					</clipPath>
					<g clip-path="url(#SVGID_50_)" enable-background="new    ">
						<g>
							<defs>
								<rect id="SVGID_51_" x="19" y="78" width="32.4" height="29.3"/>
							</defs>
							<clipPath id="SVGID_52_">
								<use xlink:href="#SVGID_51_"  overflow="visible"/>
							</clipPath>
							<g clip-path="url(#SVGID_52_)">
								<defs>
									<path id="SVGID_53_" d="M104.2,64.2c0.6,23.2-17.7,42.5-40.8,43.1C40.3,107.9,21,89.6,20.4,66.4
										C19.7,43.2,38,23.9,61.2,23.3C84.3,22.7,103.6,41,104.2,64.2"/>
								</defs>
								<clipPath id="SVGID_54_">
									<use xlink:href="#SVGID_53_"  overflow="visible"/>
								</clipPath>
								<g clip-path="url(#SVGID_54_)">
									<defs>
										<rect id="SVGID_55_" x="19" y="78" width="32.4" height="29.3"/>
									</defs>
									<clipPath id="SVGID_56_">
										<use xlink:href="#SVGID_55_"  overflow="visible"/>
									</clipPath>
									<rect x="12.6" y="15.6" clip-path="url(#SVGID_56_)" fill="#20A362" width="99.3" height="99.4"/>
								</g>
							</g>
						</g>
					</g>
				</g>
			</g>
		</g>
		<g clip-path="url(#SVGID_2_)">
			<defs>
				<rect id="SVGID_57_" x="-79.6" y="-1373.6" width="2105" height="8053.2"/>
			</defs>
			<clipPath id="SVGID_58_">
				<use xlink:href="#SVGID_57_"  overflow="visible"/>
			</clipPath>
			<g clip-path="url(#SVGID_58_)">
				<defs>
					<path id="SVGID_59_" d="M63.4,79.9c0,7.3-5.8,13.1-13,13.1c-7.2,0-13-5.9-13-13.1c0-7.3,5.8-13.1,13-13.1
						C57.6,66.8,63.4,72.7,63.4,79.9"/>
				</defs>
				<clipPath id="SVGID_60_">
					<use xlink:href="#SVGID_59_"  overflow="visible"/>
				</clipPath>
				<g clip-path="url(#SVGID_60_)">
					<defs>
						<rect id="SVGID_61_" x="19" y="16.4" width="94" height="90.9"/>
					</defs>
					<clipPath id="SVGID_62_">
						<use xlink:href="#SVGID_61_"  overflow="visible"/>
					</clipPath>
					<rect x="29.8" y="59.1" clip-path="url(#SVGID_62_)" fill="#EFEFEF" width="41.4" height="41.7"/>
				</g>
			</g>
		</g>
		<g clip-path="url(#SVGID_2_)">
			<defs>
				<rect id="SVGID_63_" x="-79.6" y="-1373.6" width="2105" height="8053.2"/>
			</defs>
			<clipPath id="SVGID_64_">
				<use xlink:href="#SVGID_63_"  overflow="visible"/>
			</clipPath>
			<g clip-path="url(#SVGID_64_)">
				<defs>
					<rect id="SVGID_65_" x="19" y="16.4" width="94" height="90.9"/>
				</defs>
				<clipPath id="SVGID_66_">
					<use xlink:href="#SVGID_65_"  overflow="visible"/>
				</clipPath>
				<path clip-path="url(#SVGID_66_)" fill="none" stroke="#DC483A" stroke-width="1.541" stroke-miterlimit="10" d="M63.3,78.4
					C64.3,86.9,57.2,94,48.7,93c-5.8-0.7-10.4-5.4-11.2-11.2c-1.1-8.5,6.1-15.6,14.5-14.5C57.9,68,62.5,72.7,63.3,78.4z"/>
			</g>
		</g>
		<g clip-path="url(#SVGID_2_)">
			<defs>
				<rect id="SVGID_67_" x="-79.6" y="-1373.6" width="2105" height="8053.2"/>
			</defs>
			<clipPath id="SVGID_68_">
				<use xlink:href="#SVGID_67_"  overflow="visible"/>
			</clipPath>
			<g clip-path="url(#SVGID_68_)">
				<defs>
					<path id="SVGID_69_" d="M59.7,80.1c0,5.1-4.2,9.3-9.3,9.3c-5.1,0-9.3-4.2-9.3-9.3c0-5.1,4.2-9.3,9.3-9.3
						C55.6,70.8,59.7,75,59.7,80.1"/>
				</defs>
				<clipPath id="SVGID_70_">
					<use xlink:href="#SVGID_69_"  overflow="visible"/>
				</clipPath>
				<g clip-path="url(#SVGID_70_)">
					<defs>
						<rect id="SVGID_71_" x="19" y="16.4" width="94" height="90.9"/>
					</defs>
					<clipPath id="SVGID_72_">
						<use xlink:href="#SVGID_71_"  overflow="visible"/>
					</clipPath>
					<rect x="33.4" y="63.1" clip-path="url(#SVGID_72_)" fill="#DC483A" width="34" height="34"/>
				</g>
			</g>
		</g>
		<g clip-path="url(#SVGID_2_)">
			<defs>
				<rect id="SVGID_73_" x="-79.6" y="-1373.6" width="2105" height="8053.2"/>
			</defs>
			<clipPath id="SVGID_74_">
				<use xlink:href="#SVGID_73_"  overflow="visible"/>
			</clipPath>
			<g clip-path="url(#SVGID_74_)">
				<defs>
					<path id="SVGID_75_" d="M110.1,41.1C112.2,58,98,72.1,81.2,70c-11.5-1.4-20.8-10.7-22.2-22.2c-2.1-16.9,12.1-31.1,28.9-29
						C99.4,20.3,108.7,29.6,110.1,41.1"/>
				</defs>
				<clipPath id="SVGID_76_">
					<use xlink:href="#SVGID_75_"  overflow="visible"/>
				</clipPath>
				<g clip-path="url(#SVGID_76_)">
					<defs>
						<rect id="SVGID_77_" x="19" y="16.4" width="94" height="90.9"/>
					</defs>
					<clipPath id="SVGID_78_">
						<use xlink:href="#SVGID_77_"  overflow="visible"/>
					</clipPath>
					<rect x="51" y="10.9" clip-path="url(#SVGID_78_)" fill="#EFEFEF" width="67" height="67"/>
				</g>
			</g>
		</g>
		<g clip-path="url(#SVGID_2_)">
			<defs>
				<rect id="SVGID_79_" x="-79.6" y="-1373.6" width="2105" height="8053.2"/>
			</defs>
			<clipPath id="SVGID_80_">
				<use xlink:href="#SVGID_79_"  overflow="visible"/>
			</clipPath>
			<g clip-path="url(#SVGID_80_)">
				<defs>
					<rect id="SVGID_81_" x="19" y="16.4" width="94" height="90.9"/>
				</defs>
				<clipPath id="SVGID_82_">
					<use xlink:href="#SVGID_81_"  overflow="visible"/>
				</clipPath>
				<path clip-path="url(#SVGID_82_)" fill="none" stroke="#DC483A" stroke-width="3.082" stroke-miterlimit="10" d="M110.9,41.1
					C113,58,98.8,72.1,82,70c-11.5-1.4-20.8-10.7-22.2-22.2c-2.1-16.9,12.1-31.1,28.9-29C100.2,20.3,109.5,29.6,110.9,41.1z"/>
			</g>
		</g>
		<g clip-path="url(#SVGID_2_)">
			<defs>
				<rect id="SVGID_83_" x="-79.6" y="-1373.6" width="2105" height="8053.2"/>
			</defs>
			<clipPath id="SVGID_84_">
				<use xlink:href="#SVGID_83_"  overflow="visible"/>
			</clipPath>
			<g clip-path="url(#SVGID_84_)">
				<defs>
					<path id="SVGID_85_" d="M103.9,44.4c0,10.2-8.3,18.6-18.5,18.6c-10.2,0-18.5-8.3-18.5-18.6c0-10.2,8.3-18.6,18.5-18.6
						C95.6,25.9,103.9,34.2,103.9,44.4"/>
				</defs>
				<clipPath id="SVGID_86_">
					<use xlink:href="#SVGID_85_"  overflow="visible"/>
				</clipPath>
				<g clip-path="url(#SVGID_86_)">
					<defs>
						<rect id="SVGID_87_" x="19" y="16.4" width="94" height="90.9"/>
					</defs>
					<clipPath id="SVGID_88_">
						<use xlink:href="#SVGID_87_"  overflow="visible"/>
					</clipPath>
					<rect x="59.1" y="18.2" clip-path="url(#SVGID_88_)" fill="#DC4B3F" width="52.5" height="52.5"/>
				</g>
			</g>
		</g>
	</g>
</g>
</svg>
